<svg xmlns="http://www.w3.org/2000/svg" xmlns:xlink="http://www.w3.org/1999/xlink" viewBox="0,0,256,256" width="24px" height="24px" fill-rule="nonzero"><g fill="#ef7006" fill-rule="nonzero" stroke="none" stroke-width="1" stroke-linecap="butt" stroke-linejoin="miter" stroke-miterlimit="10" stroke-dasharray="" stroke-dashoffset="0" font-family="none" font-weight="none" font-size="none" text-anchor="none" style="mix-blend-mode: normal"><g transform="scale(10.66667,10.66667)"><path d="M12,2c-5.51101,0 -10,4.489 -10,10c0,5.511 4.48899,10 10,10c5.51101,0 10,-4.489 10,-10c0,-5.511 -4.48899,-10 -10,-10zM16,9c0.25575,0 0.51153,0.09747 0.70703,0.29297c0.391,0.391 0.391,1.02306 0,1.41406l-5,5c-0.195,0.195 -0.45103,0.29297 -0.70703,0.29297c-0.256,0 -0.51203,-0.09797 -0.70703,-0.29297l-3,-3c-0.391,-0.391 -0.391,-1.02306 0,-1.41406c0.391,-0.391 1.02306,-0.391 1.41406,0l2.29297,2.29297l4.29297,-4.29297c0.1955,-0.1955 0.45128,-0.29297 0.70703,-0.29297z"></path></g></g></svg>